#define tick_width 8
#define tick_height 8
static unsigned char tick_bits[] = {
   0x00, 0x80, 0xc0, 0x60, 0x31, 0x1b, 0x0e, 0x04 };
