#define df_width 16
#define df_height 16
static unsigned char df_bits[] = {
   0xf0, 0x01, 0x4c, 0x06, 0x02, 0x08, 0x40, 0x00, 0x00, 0x07, 0xc0, 0x0f,
   0xc0, 0x05, 0xc0, 0x07, 0xc0, 0x0f, 0x40, 0x0f, 0xc0, 0x1d, 0xc0, 0x3f,
   0x40, 0x7f, 0xc0, 0x08, 0x60, 0x18, 0xe0, 0x39 };
